# xmcd CD database file
#
# Track frame offsets:
#	150
#	21746
#	40971
#	60098
#	85455
#	102193
#	118468
#	136711
#	157864
#	174852
#	194296
#	215932
#	237369
#	256012
#	276904
#	306067
#	327042
#
# Disc length: 4662 seconds
#
# Revision: 0
# Processed by: cddbd v1.4PL0 Copyright (c) Steve Scherf et al.
# Submitted via: CDex 1.50beta8
#
DISCID=ea123411
DTITLE=BachataHits - 2003
DYEAR=1900
DGENRE=Salsa
TTITLE0=Ramon Torres
TTITLE1=Luis Migel del Marque
TTITLE2=Aventura
TTITLE3=Manny Jhovanny
TTITLE4=Zacarias Ferreira
TTITLE5=Jose Manuel
TTITLE6=Frank Rege
TTITLE7=Willy Castro
TTITLE8=Yoscar Sarrante
TTITLE9=Yoscar Sarrante
TTITLE10=Raulin Rodriges
TTITLE11=Aventura
TTITLE12=Yoscar Sarante
TTITLE13=Bachata
TTITLE14=Los Torros Band
TTITLE15=DLG
TTITLE16=Bonus Track
EXTD=
EXTT0=
EXTT1=
EXTT2=
EXTT3=
EXTT4=
EXTT5=
EXTT6=
EXTT7=
EXTT8=
EXTT9=
EXTT10=
EXTT11=
EXTT12=
EXTT13=
EXTT14=
EXTT15=
EXTT16=
PLAYORDER=
